<?xml version="1.0" encoding="utf-8"?>
<!-- Generator: Adobe Illustrator 26.0.1, SVG Export Plug-In . SVG Version: 6.00 Build 0)  -->
<svg version="1.1" id="Layer_1" xmlns="http://www.w3.org/2000/svg" xmlns:xlink="http://www.w3.org/1999/xlink" x="0px" y="0px"
	 viewBox="0 0 315.7 306.9" style="enable-background:new 0 0 315.7 306.9;" xml:space="preserve">
<style type="text/css">
	.st0{clip-path:url(#SVGID_00000168082699475369958850000009208046180527889841_);}
	.st1{fill:url(#Rectangle_6_00000114774807880925884330000018183970746044116371_);}
	.st2{clip-path:url(#SVGID_00000085249407948078489960000005544265468699643011_);}
	.st3{fill:url(#Rectangle_7_00000114777465121376357520000009153775776742828424_);}
	.st4{clip-path:url(#SVGID_00000123408598833676148630000011035574171972938655_);}
	.st5{fill:url(#Rectangle_8_00000131344022423771173010000003508386971964626310_);}
	.st6{fill:url(#Rectangle_10_00000069385151620386703200000004265219110555301027_);}
	.st7{fill:url(#Rectangle_11_00000013175788310853750870000008720457586395428759_);}
	.st8{fill:url(#Rectangle_12_00000092447029301699232530000016918963647259969449_);}
	.st9{fill:url(#Rectangle_13_00000162335230020351597260000017002747100555830658_);}
	.st10{fill:url(#Rectangle_16_00000075868829640746763190000013052141114550017977_);}
	.st11{fill:url(#Rectangle_14_00000075878430905209454580000009426217012528667556_);}
	.st12{fill:url(#Rectangle_15_00000046331655959808611920000009749911193944419226_);}
	.st13{fill:#FFFFFF;}
	.st14{fill:none;stroke:#5B00C9;}
	.st15{fill:none;}
	.st16{fill:none;stroke:#00FFFF;}
	.st17{fill:none;stroke:#FC02FF;}
	.st18{fill:#00FFFF;}
</style>
<g id="Group_8" transform="translate(52.414)">
	<g id="Group_3" transform="translate(63.197 172.349)">
		<g>
			<defs>
				<path id="SVGID_1_" d="M69.2,44.1c0,3-3.1,5.4-5.7,5.4H37.4c-2.6,0-5.7-2.4-5.7-5.4h-3.5c0,5.1,4.8,8.9,9.2,8.9h26.1
					c4.3,0,9.2-3.8,9.2-8.9H69.2z"/>
			</defs>
			<clipPath id="SVGID_00000040547073031946359920000006592321195265244066_">
				<use xlink:href="#SVGID_1_"  style="overflow:visible;"/>
			</clipPath>
			<g id="Group_2" style="clip-path:url(#SVGID_00000040547073031946359920000006592321195265244066_);">
				
					<linearGradient id="Rectangle_6_00000155115814937906996830000001329229094212501417_" gradientUnits="userSpaceOnUse" x1="-910.4346" y1="499.6819" x2="-909.8836" y2="499.1819" gradientTransform="matrix(44.513 0 0 -8.886 40570.9141 4487.7227)">
					<stop  offset="0" style="stop-color:#00FFFF"/>
					<stop  offset="0.532" style="stop-color:#5400C7"/>
					<stop  offset="1" style="stop-color:#CE00FF"/>
				</linearGradient>
				
					<rect id="Rectangle_6" x="28.2" y="44.1" style="fill:url(#Rectangle_6_00000155115814937906996830000001329229094212501417_);" width="44.5" height="8.9"/>
			</g>
		</g>
	</g>
	<g id="Group_5" transform="translate(68.517 188.932)">
		<g>
			<defs>
				<polygon id="SVGID_00000035504236932487013440000004396350669303286663_" points="57.1,44.1 57.1,56.8 52.3,53.5 49.3,61 46,50 
					38.7,61.9 35.8,51.5 31.6,54.9 31.6,44.1 28.2,44.1 28.2,61.9 33.9,57.3 37.6,70.2 44.9,58.2 48.9,71.1 53.9,58.7 60.4,63.3 
					60.4,44.1 				"/>
			</defs>
			<clipPath id="SVGID_00000052078029557021378180000009903615652098080397_">
				<use xlink:href="#SVGID_00000035504236932487013440000004396350669303286663_"  style="overflow:visible;"/>
			</clipPath>
			<g id="Group_4" style="clip-path:url(#SVGID_00000052078029557021378180000009903615652098080397_);">
				
					<linearGradient id="Rectangle_7_00000149352962200191083090000016679855693047245476_" gradientUnits="userSpaceOnUse" x1="-913.9865" y1="498.0735" x2="-912.7686" y2="497.4455" gradientTransform="matrix(32.223 0 0 -26.958 29475.2695 13475.875)">
					<stop  offset="0" style="stop-color:#00FFFF"/>
					<stop  offset="0.532" style="stop-color:#5400C7"/>
					<stop  offset="1" style="stop-color:#FF00FF"/>
				</linearGradient>
				
					<rect id="Rectangle_7" x="28.2" y="44.1" style="fill:url(#Rectangle_7_00000149352962200191083090000016679855693047245476_);" width="32.2" height="27"/>
			</g>
		</g>
	</g>
	<g id="Group_7">
		<g>
			<defs>
				<path id="SVGID_00000100347411602915637800000017917751742612813744_" d="M127.8,200.8l8.7,9.8h-24.8L127.8,200.8z M89.1,210.5
					l11.4-10.2l5,10.4H89.1C89.1,210.6,89.1,210.5,89.1,210.5 M101,199.8l2.3-2.1l2.3,11.9L101,199.8z M128.5,200.4l8.8-5.4
					c0.2,1.6,0.3,3.2,0.4,4.8c0.1,1.1,0.1,2.3,0.2,3.4c0,0.8,0,1.6,0,2.5c0,1.7,0,3.3-0.1,4.9h-0.2L128.5,200.4z M143.1,199.9
					l14.4-10.4l13.4,10c-5.6,0.3-12,0.4-18.8,0.4C149.2,199.9,146.2,199.9,143.1,199.9 M68.9,199.9l6.1-11.2l10.3,11.1
					c-3.8,0-7.5,0.1-11,0.1C72.4,199.9,70.7,199.9,68.9,199.9 M104,197.1l11.5-10.3l11.9,13.4l-17,10.4h-3.7L104,197.1z
					 M177.9,186.5l9.1,10.6c-4.3,1.2-8.7,1.9-13.1,2.2L177.9,186.5z M89,208.6l4.8-22.3l6.4,13.3L89,209.5
					C89,209.2,89,208.9,89,208.6 M33.4,194c-1.2-1.1-1.9-2.7-1.8-4.4c0.1-1.7,0.7-3.3,1.7-4.6l14.9,13.9C41.2,198,36,196.5,33.4,194
					 M68,199.9l2.1-16.5l4.4,4.7L68,199.9L68,199.9 M89,203.3c0-1.1,0.1-2.3,0.2-3.4c0.3-5.8,1.3-11.6,2.9-17.2l1.2,2.5l-4.3,20.1
					C88.9,204.6,88.9,203.9,89,203.3 M141.4,199.9l6.2-17.7l9.3,6.9l-15,10.8L141.4,199.9 M116,186.4l4.8-4.3l16,9.7
					c0.1,0.8,0.2,1.6,0.3,2.4l-9.2,5.6L116,186.4z M158.1,189.1l13.6-9.8l5.6,6.6l-4.2,13.5c-0.4,0-0.7,0.1-1.1,0.1L158.1,189.1z
					 M121.3,181.6l4.7-4.2l9.8,13L121.3,181.6z M183.4,175.4c5.4,4.3,11.4,9.7,11.4,14.2c0,1.6-0.6,3.2-1.8,4.4
					c-1.1,1-2.3,1.8-3.7,2.3L183.4,175.4z M178.2,185.7l3.6-11.6c0.2,0.1,0.4,0.3,0.6,0.5l6.2,22c-0.3,0.1-0.5,0.2-0.8,0.3
					L178.2,185.7z M172.3,178.9l8.1-5.8l0.8,0.6l-3.6,11.4L172.3,178.9z M126.5,176.9l4.4-4c2.6,5.4,4.5,11.2,5.5,17.2L126.5,176.9z
					 M92.4,181.6c0.9-3.1,2.1-6.1,3.6-9L93.5,184L92.4,181.6z M134.5,172.4l12.5,9.3l-6,17.2C140.5,189.8,138.2,180.8,134.5,172.4
					 M86.1,171.1c0.1,0,0.2-0.1,0.3-0.1l3.5,7.2c-1.4,3.9-2.4,8-3.1,12L86.1,171.1z M102.2,170.9l17.9,10.8l-4.6,4.1L102.2,170.9z
					 M75.4,188.1l9.4-17.2c0.2,0.1,0.4,0.2,0.7,0.3l0.9,23.1c-0.2,1.7-0.4,3.3-0.5,5L75.4,188.1z M94,185.1l3.2-14.8
					c0.2-0.3,0.4-0.7,0.6-1l5.4,27.5l-2.5,2.2L94,185.1z M98.4,168.5l1.8,1.1l14.8,16.7l-11.1,10L98.4,168.5z M49.4,199l-15.7-14.6
					c3.2-4.5,9.3-9,13.4-12.1l0.5-0.3c1-0.7,3.4-2.6,6-4.5l-3.4,31.7C49.9,199.1,49.7,199,49.4,199 M50.9,199.1l3.5-32.4l0.1-0.1
					l14.9,16.1l-2.2,17.1C61.3,199.8,55.7,199.6,50.9,199.1 M157.6,161.8l19.2,8.6c0.8,0.6,1.5,1.1,2,1.5l0.5,0.4l0.5,0.4l-7.9,5.7
					L157.6,161.8z M156.5,161.7l14.7,17.1l-13.7,9.9l-9.7-7.2l6.6-19C155.2,162.6,156.1,162.3,156.5,161.7 M133.8,171l6.1-11
					l13.2,1.1c0.1,0.4,0.3,0.8,0.7,1l-6.6,18.9L133.8,171z M133.4,170.2c-0.2-0.4-0.4-0.7-0.6-1l-0.2-9.8l6.4,0.5L133.4,170.2
					L133.4,170.2 M124,158.7l7.9,0.6l0.1,8.5C130,164.4,127.3,161.2,124,158.7 M100.6,169l-1.5-1.7c3.7-5.2,8-8.3,12.6-8.9
					l13.9,18.4l-4.9,4.4L100.6,169z M112.5,158.4c0.3,0,0.6,0,0.9,0c6.3,0,12.4,4.8,17,13.5c0.1,0.2,0.2,0.3,0.2,0.5l-4.5,4.1
					L112.5,158.4z M140.3,159.3l4.9-8.8l8.1,9.2c-0.1,0.2-0.2,0.4-0.2,0.6L140.3,159.3z M122.8,157.9c-2-1.3-4.3-2.3-6.7-2.7
					l15.6-6.3l0.2,9.8L122.8,157.9z M75.8,147l25.3,13.2c-3.1,2.9-5.7,6.3-7.6,10.1c-1.2,2.3-2.2,4.6-3.1,7l-3.2-6.7
					c0.4-0.4,0.6-0.8,0.6-1.3c0-1.1-0.9-1.9-1.9-1.9c0,0,0,0,0,0c-0.1,0-0.1,0-0.2,0L75.8,147z M55.1,166.2l1-0.7
					c4.7-3.6,9-7.6,12.9-12c1.8-2.2,3.5-4.6,5-7l-4.4,35.3L55.1,166.2z M70.2,182.5l4.5-36.1l10.1,21.2c-0.9,0.5-1.3,1.6-0.8,2.5
					c0,0.1,0.1,0.2,0.2,0.3l-9.3,17.1L70.2,182.5z M152.3,146.3c1.5,2.5,3.2,4.9,5.1,7.2c3.9,4.4,8.2,8.4,12.9,12
					c1.3,1,2.6,2,3.9,2.9l-17.4-7.7c0,0,0,0,0-0.1c0-1.1-0.9-1.9-1.9-1.9c-0.2,0-0.3,0-0.5,0.1L152.3,146.3z M132.6,158.7l-0.2-10.1
					l8.1-3.3l4.1,4.6l-5.2,9.3L132.6,158.7z M145.6,149.8l4.3-7.8c0.4,0.8,0.9,1.7,1.4,2.5l2.5,14.5c0,0,0,0,0,0L145.6,149.8z
					 M141.3,145l7.9-3.2l-4.1,7.5L141.3,145z M75.3,145.9l-0.2-0.5l26.3-5.2l8.7,15.1c-3.1,0.7-6,2.2-8.4,4.3L75.3,145.9z
					 M102.1,140.1l10.8-2.1L112,155c-0.4,0-0.8,0.1-1.1,0.1L102.1,140.1z M132.3,135.9L132.3,135.9l7.8,8.8l-7.6,3.1L132.3,135.9z
					 M114.1,155l16.8-19.2c0.2,0.1,0.4,0.1,0.6,0.2l0.2,12.2l-17.1,6.9C114.5,155,114.3,155,114.1,155 M113.6,137.8l16.4-3.2
					c0.1,0.3,0.2,0.5,0.4,0.7L113.2,155c-0.2,0-0.3,0-0.5,0L113.6,137.8z M133,135.5c0.4-0.4,0.7-0.9,0.7-1.5c0,0,0-0.1,0-0.1
					l15.5,6.7c0.1,0.1,0.1,0.2,0.2,0.3l-8.5,3.5L133,135.5z M92,126.8c0.5,0.3,1.1,0.3,1.6,0.1l7.3,12.6l-25.5,5L92,126.8z
					 M114.2,125.6l16.3,7c-0.4,0.3-0.6,0.8-0.7,1.3l-16.2,3.2L114.2,125.6z M94.3,126.5c0.7-0.6,0.8-1.7,0.3-2.5l4.6-5l14.3,6.2
					l-0.6,11.9l-11.2,2.2L94.3,126.5z M85.1,118.2c0.4-1.3,0.7-2.8,1-4.4l5.7,9.8c-0.8,0.6-0.9,1.8-0.3,2.6c0,0,0,0,0,0l-15.3,16.4
					C80.7,134.1,83.1,125.6,85.1,118.2 M86.9,113.8l11.5,5l-4.4,4.8c-0.5-0.3-1.1-0.4-1.6-0.2L86.9,113.8z M114.3,124.8l1.1-21
					c0.3,0,0.5-0.1,0.8-0.3l14.1,28.1L114.3,124.8z M99.7,118.5l14.2-15.1c0.2,0.2,0.5,0.3,0.8,0.4l-1.1,20.7L99.7,118.5z
					 M86.7,112.9l26.6-10.6c0,0.2,0.1,0.3,0.2,0.5L99,118.2L86.7,112.9z M131.3,132.1L116.7,103c0.2-0.2,0.3-0.5,0.3-0.8l13.9-0.4
					l0.5,30.3C131.4,132.1,131.4,132.1,131.3,132.1L131.3,132.1z M133.4,133c-0.3-0.4-0.7-0.7-1.2-0.9l-0.5-30.3l6.2-0.2
					c0.1,0.7,0.3,1.4,0.4,2c0.3,1.3,0.5,2.5,0.7,3.6c0.9,4.5,1.6,8,2.4,11c1.8,6.4,3.8,13.8,7.4,21.3L133.4,133z M111.3,87.8
					l2.9,12.5c-0.5,0.3-0.9,0.7-1,1.3l-26.5,10.6L111.3,87.8z M87.4,107.3c0.2-1.1,0.5-2.3,0.7-3.6c1.1-5.7,2.6-13.1,3.3-16.9
					l16.4-7.8c0.4,0.3,0.8,0.5,1.3,0.5c0.1,0,0.1,0,0.2,0l1.8,7.4l-24.5,24.2C86.9,109.9,87.2,108.7,87.4,107.3 M116.7,100.9
					l13.7-29.7l0.5,29.9l-14,0.2C116.9,101.1,116.8,101,116.7,100.9 M131.2,71.1c0,0,0.1,0.1,0.1,0.1c1.3,4.3,2.4,8.6,3.2,13
					c0,0.1,1.7,9.1,3.3,16.7l-6,0.1L131.2,71.1z M111.9,87.2l17.8-17.6c0.2,0.1,0.3,0.3,0.4,0.4l-14,30.3c-0.3-0.2-0.7-0.3-1-0.3
					c0,0-0.1,0-0.1,0L111.9,87.2z M110.1,79.3c0.6-0.3,1-1,1-1.7c0-0.1,0-0.1,0-0.2l17.9-8.5c0.1,0,0.1,0.1,0.2,0.2l-17.4,17.2
					L110.1,79.3z M98.6,68.3L92.2,83c0.8-4,1.7-7.8,2.8-11.2l0,0C96,70.5,97.2,69.3,98.6,68.3 M99.7,67.6c2-1.2,4.1-2,6.3-2.6
					l2.6,10.8c-1,0.4-1.5,1.4-1.1,2.4c0,0,0,0.1,0,0.1l-15.6,7.4L99.7,67.6z M109.2,75.7l-2.6-10.9c2.2-0.5,4.4-0.8,6.7-0.8
					c5.3-0.1,10.6,1.4,15,4.4l-17.4,8.3C110.6,76.1,109.9,75.7,109.2,75.7 M110.7,53.1l10.5,8.7c-2.6-0.6-5.2-0.9-7.9-0.9
					c-2.3,0-4.5,0.2-6.7,0.7L110.7,53.1z M106.2,50.7l-5.5,12.7c-1.2,0.5-2.4,1.2-3.5,1.9C99.8,58.6,102.9,53.6,106.2,50.7
					 M107.2,50.2l2.9,2.4l-4.4,9.1c-1.4,0.3-2.7,0.7-4,1.3L107.2,50.2z M126.3,63.5l-11.5-15.8c5.3,1.2,10.3,7.3,14.3,17.3
					C128.2,64.5,127.3,64,126.3,63.5 M107.6,49.6c1.4-1.1,3.2-1.8,4.9-2l-2.1,4.3L107.6,49.6z M123,62.2L111,52.4l2.3-4.8
					c0.1,0,0.3,0,0.4,0L125,62.9C124.3,62.7,123.7,62.4,123,62.2 M113.2,44.1c-10.8,0.2-19.9,15-24.6,39.4c0,0.1-2.2,11.4-3.8,19.5
					c-0.3,1.3-0.5,2.5-0.7,3.6c-0.9,4.4-1.5,7.9-2.3,10.7c-2.8,10.1-6.2,22.7-15.5,34c-3.7,4.2-7.8,8-12.3,11.4
					c-3.4,2.5-7.2,5.4-8.5,6.4l-0.4,0.3c-7.1,5.3-16.8,12.7-16.8,20.1c0,2.6,1,5,2.8,6.8c6.2,6.1,22.1,7,43,7c3.7,0,7.6,0,11.5-0.1
					c0,0.8,0,1.6,0,2.5c0,2.3,0.1,4.5,0.2,6.7l0.1,1.6h55l0.1-1.6c0.2-2.2,0.2-4.5,0.2-6.7c0-0.8,0-1.6,0-2.5
					c21,0.2,38.4,0.2,48.2-3.4l0.2,0.3l0.6-0.3l-0.1-0.3c1.9-0.7,3.7-1.8,5.1-3.2c1.8-1.8,2.9-4.2,2.8-6.8c0-7.4-9.7-14.7-16.8-20.1
					l-0.5-0.4c-1.4-1.1-5.1-3.9-8.5-6.4c-4.5-3.4-8.6-7.2-12.3-11.4c-9.3-11.3-12.7-23.9-15.5-34c-0.8-2.8-1.4-6.3-2.3-10.7
					c-0.2-1.1-0.5-2.3-0.7-3.6c-1.6-8.1-3.8-19.3-3.8-19.5C133.2,59.1,124,44.4,113.2,44.1L113.2,44.1z"/>
			</defs>
			<clipPath id="SVGID_00000152957980409201405340000010408376019581556108_">
				<use xlink:href="#SVGID_00000100347411602915637800000017917751742612813744_"  style="overflow:visible;"/>
			</clipPath>
			<g id="Group_6" style="clip-path:url(#SVGID_00000152957980409201405340000010408376019581556108_);">
				
					<linearGradient id="Rectangle_8_00000026867997999778876930000009039230415528300420_" gradientUnits="userSpaceOnUse" x1="-851.8004" y1="692.7726" x2="-851.1574" y2="692.8026" gradientTransform="matrix(170 0 0 -169.878 144869.8281 117818.2188)">
					<stop  offset="0" style="stop-color:#00FFFF"/>
					<stop  offset="0.566" style="stop-color:#5400C7"/>
					<stop  offset="1" style="stop-color:#FF00FF"/>
				</linearGradient>
				
					<rect id="Rectangle_8" x="28.2" y="44.1" style="fill:url(#Rectangle_8_00000026867997999778876930000009039230415528300420_);" width="170" height="169.9"/>
			</g>
		</g>
	</g>
</g>
<linearGradient id="Rectangle_10_00000084489509224632773770000009083177066232600975_" gradientUnits="userSpaceOnUse" x1="-535.3056" y1="690.0892" x2="-535.3056" y2="689.0892" gradientTransform="matrix(1 0 0 -45 754 31144.1035)">
	<stop  offset="0" style="stop-color:#00FFFF"/>
	<stop  offset="1" style="stop-color:#5D00AD"/>
</linearGradient>
<rect id="Rectangle_10" x="218.2" y="90.1" style="fill:url(#Rectangle_10_00000084489509224632773770000009083177066232600975_);" width="1" height="45"/>
<linearGradient id="Rectangle_11_00000101066135579807828190000005390421448778640281_" gradientUnits="userSpaceOnUse" x1="-535.3056" y1="688.5078" x2="-535.3056" y2="687.5078" gradientTransform="matrix(1 0 0 -33 640 22950.8438)">
	<stop  offset="0" style="stop-color:#00FFFF"/>
	<stop  offset="1" style="stop-color:#5D00AD"/>
</linearGradient>
<rect id="Rectangle_11" x="104.2" y="230.1" style="fill:url(#Rectangle_11_00000101066135579807828190000005390421448778640281_);" width="1" height="33"/>
<linearGradient id="Rectangle_12_00000025405749305592333790000001158364531635955115_" gradientUnits="userSpaceOnUse" x1="-668.2343" y1="685.5426" x2="-668.2343" y2="684.5426" gradientTransform="matrix(2 0 0 -22 1554.1565 15301.0244)">
	<stop  offset="0" style="stop-color:#00FFFF"/>
	<stop  offset="1" style="stop-color:#5D00AD"/>
</linearGradient>
<rect id="Rectangle_12" x="217.2" y="219.1" style="fill:url(#Rectangle_12_00000025405749305592333790000001158364531635955115_);" width="1" height="22"/>
<linearGradient id="Rectangle_13_00000137833908965160204540000005971282016318953345_" gradientUnits="userSpaceOnUse" x1="-535.3056" y1="679.3842" x2="-535.3056" y2="678.3842" gradientTransform="matrix(1 0 0 -13 623 9057.0801)">
	<stop  offset="0" style="stop-color:#00FFFF"/>
	<stop  offset="1" style="stop-color:#5D00AD"/>
</linearGradient>
<rect id="Rectangle_13" x="87.2" y="225.1" style="fill:url(#Rectangle_13_00000137833908965160204540000005971282016318953345_);" width="1" height="13"/>
<linearGradient id="Rectangle_16_00000150797232781265893750000010145428672136890261_" gradientUnits="userSpaceOnUse" x1="-535.3056" y1="679.3842" x2="-535.3056" y2="678.3842" gradientTransform="matrix(1 0 0 -13 777 8900.0801)">
	<stop  offset="0" style="stop-color:#00FFFF"/>
	<stop  offset="1" style="stop-color:#5D00AD"/>
</linearGradient>
<rect id="Rectangle_16" x="241.2" y="68.1" style="fill:url(#Rectangle_16_00000150797232781265893750000010145428672136890261_);" width="1" height="13"/>
<linearGradient id="Rectangle_14_00000042717173992743228540000000457144149958503080_" gradientUnits="userSpaceOnUse" x1="-535.3056" y1="682.9263" x2="-535.3056" y2="681.9263" gradientTransform="matrix(1 0 0 -17 645 11712.833)">
	<stop  offset="0" style="stop-color:#00FFFF"/>
	<stop  offset="1" style="stop-color:#5D00AD"/>
</linearGradient>
<rect id="Rectangle_14" x="109.2" y="103.1" style="fill:url(#Rectangle_14_00000042717173992743228540000000457144149958503080_);" width="1" height="17"/>
<linearGradient id="Rectangle_15_00000003095473635327813360000006534708971599517326_" gradientUnits="userSpaceOnUse" x1="-535.3056" y1="679.3842" x2="-535.3056" y2="678.3842" gradientTransform="matrix(1 0 0 -13 619 8965.0801)">
	<stop  offset="0" style="stop-color:#00FFFF"/>
	<stop  offset="1" style="stop-color:#5D00AD"/>
</linearGradient>
<rect id="Rectangle_15" x="83.2" y="133.1" style="fill:url(#Rectangle_15_00000003095473635327813360000006534708971599517326_);" width="1" height="13"/>
<g id="Ellipse_1" transform="translate(35 51.945)">
	<circle class="st13" cx="29.2" cy="45.1" r="1"/>
	<circle class="st14" cx="29.2" cy="45.1" r="0.5"/>
</g>
<g id="Ellipse_3" transform="translate(50 67.945)">
	<circle class="st15" cx="31.2" cy="47.1" r="3"/>
	<circle class="st16" cx="31.2" cy="47.1" r="2.5"/>
</g>
<g id="Ellipse_2" transform="translate(253 145.945)">
	<circle class="st15" cx="31.7" cy="47.6" r="3.5"/>
	<circle class="st17" cx="31.7" cy="47.6" r="3"/>
</g>
<circle id="Ellipse_4" class="st13" cx="29.2" cy="216.1" r="1"/>
<circle id="Ellipse_5" class="st18" cx="59.2" cy="176.1" r="1"/>
<circle id="Ellipse_6" class="st13" cx="99.2" cy="146.1" r="1"/>
<circle id="Ellipse_7" class="st13" cx="239.2" cy="116.1" r="1"/>
<circle id="Ellipse_8" class="st13" cx="249.2" cy="146.1" r="1"/>
<circle id="Ellipse_9" class="st13" cx="199.2" cy="236.1" r="1"/>
<circle id="Ellipse_10" class="st18" cx="239.2" cy="226.1" r="1"/>
<g id="Ellipse_11" transform="translate(33 198.945)">
	<circle class="st15" cx="30.2" cy="46.1" r="2"/>
	<circle class="st17" cx="30.2" cy="46.1" r="1.5"/>
</g>
<g id="Ellipse_12" transform="translate(205 87.945)">
	<circle class="st15" cx="31.2" cy="47.1" r="3"/>
	<circle class="st16" cx="31.2" cy="47.1" r="2.5"/>
</g>
</svg>
